# xmcd
#
# Track frame offsets: 
#        150
#        18865
#        34580
#        55612
#        77503
#        101686
#        124829
#        152306
#        175741
#        194361
#        210014
#        228159
#        244904
#        262460
#        280848
#        304855
#
# Disc length: 4281 seconds
#
# Revision: 1
# Processed by: cddbd v1.5.2PL0 Copyright (c) Steve Scherf et al.
# Submitted via: ExactAudioCopy v0.99pb5
#
DISCID=c510b710
DTITLE=Jim Suhler and Monkey Beat - Tijuana Bible
DYEAR=2007
DGENRE=Blues
TTITLE0=Tijuana Bible
TTITLE1=Devil In Me
TTITLE2=Drunken Hearted Boy
TTITLE3=Up To My Neck In You
TTITLE4=Long Hot Summer
TTITLE5=Black Sky
TTITLE6=Deep Water Lullaby
TTITLE7=Years Of Tears
TTITLE8=Po' Lightnin'
TTITLE9=Border Rock
TTITLE10=Mexicali Run
TTITLE11=Sunday Drunk
TTITLE12=Chaos In Tejas
TTITLE13=Juice
TTITLE14=I Could've Had Religion
TTITLE15=Cold Light Of Day
EXTD=
EXTT0=
EXTT1=
EXTT2=
EXTT3=
EXTT4=
EXTT5=
EXTT6=
EXTT7=
EXTT8=
EXTT9=
EXTT10=
EXTT11=
EXTT12=
EXTT13=
EXTT14=
EXTT15=
PLAYORDER=
